<svg xmlns="http://www.w3.org/2000/svg" width="64" height="64" viewBox="0 0 64 64" role="img" aria-label="Takt">
    <defs>
        <linearGradient id="mark-8facbc-taktiBadge" x1="0" y1="0" x2="1" y2="1">
            <stop offset="0%" stop-color="#8b5cf6"/>
            <stop offset="52%" stop-color="#6366f1"/>
            <stop offset="100%" stop-color="#4747ae"/>
        </linearGradient>

        
        <linearGradient id="mark-8facbc-taktiGloss" x1="0" y1="0" x2="0" y2="1">
            <stop offset="0%" stop-color="#fff" stop-opacity=".26"/>
            <stop offset="60%" stop-color="#fff" stop-opacity="0"/>
        </linearGradient>

        <radialGradient id="mark-8facbc-taktiDrop" cx="50%" cy="50%" r="50%">
            <stop offset="0%" stop-color="#1a1035" stop-opacity=".45"/>
            <stop offset="100%" stop-color="#1a1035" stop-opacity="0"/>
        </radialGradient>
    </defs>

    <rect x="1" y="1" width="62" height="62" rx="15" fill="url(#mark-8facbc-taktiBadge)"/>
    <rect x="1" y="1" width="62" height="30" rx="15" fill="url(#mark-8facbc-taktiGloss)"/>

    
    <ellipse cx="32" cy="52" rx="17" ry="4.5" fill="url(#mark-8facbc-taktiDrop)"/>

    
    <g fill="#ffffff">
        <g stroke="#ffffff" stroke-width="4.4" stroke-linecap="round" fill="none">
            <path d="M18 34 L12.5 39"/>
            <path d="M46 34 L51.5 39"/>
        </g>

        <ellipse cx="25" cy="50" rx="5.4" ry="3"/>
        <ellipse cx="39" cy="50" rx="5.4" ry="3"/>

        <rect x="15" y="14" width="34" height="34" rx="11.5"/>
    </g>

    
    <path d="M32 14 l4.5 -5.5" stroke="#ffffff" stroke-width="3.2" stroke-linecap="round" fill="none"/>

    
    <g fill="#6366f1">
        <circle cx="25.5" cy="30" r="3.3"/>
        <circle cx="38.5" cy="30" r="3.3"/>
        <path d="M28 38.5 q4 3.2 8 0" stroke="#6366f1" stroke-width="2.3"
              stroke-linecap="round" fill="none"/>
    </g>

    
    <g fill="#ffffff" fill-opacity=".92">
        <circle cx="26.6" cy="28.8" r="1.05"/>
        <circle cx="39.6" cy="28.8" r="1.05"/>
    </g>
</svg>
